<svg id="Layer_1" data-name="Layer 1" xmlns="http://www.w3.org/2000/svg" viewBox="0 0 97.19 30"><defs><style>.cls-1{fill:#434d56;}</style></defs><path class="cls-1" d="M169.54,56h-6.16v-30h9.27c7.42,0,11.42,3.28,11.42,9.45,0,4.72-2.47,7.87-7.12,9l8.27,11.51h-7.45l-8.24-11.92Zm2.79-15.52c3.51,0,5.49-1.71,5.49-4.72s-1.88-4.68-4.95-4.68h-3.33v9.4Z" transform="translate(-163.38 -26.05)"/><path class="cls-1" d="M201.65,56h-6.16v-30h6.16Z" transform="translate(-163.38 -26.05)"/><path class="cls-1" d="M219.92,56h-6.17v-30h9.58c7.13,0,11.11,3.46,11.11,9.58s-4.09,10.12-10.7,10.12h-3.82Zm2.65-15.37c3.55,0,5.62-1.71,5.62-4.72s-2.11-4.82-5.48-4.82h-2.79v9.54Z" transform="translate(-163.38 -26.05)"/><path class="cls-1" d="M260.57,51V56H244.38v-30h6.16V51Z" transform="translate(-163.38 -26.05)"/></svg>